<svg width="40" height="40" viewBox="0 0 40 40" fill="none" xmlns="http://www.w3.org/2000/svg">
<path d="M7.83712 9.01793C8.33576 9.15172 8.84657 9.26117 9.32088 9.43144C9.51548 9.49225 9.64926 9.49225 9.81953 9.34631C11.5465 7.69227 13.5533 6.51256 15.8641 5.85581C16.2532 5.74635 16.1681 5.46662 16.2167 5.22338C16.5208 3.5207 17.8343 2.28017 19.5856 2.03693C21.1789 1.81802 22.845 2.75449 23.4896 4.26258C23.6599 4.63961 23.7572 5.05312 23.818 5.46662C23.8667 5.68554 23.9275 5.77067 24.1464 5.84365C26.445 6.52472 28.4761 7.68011 30.1909 9.33415C30.349 9.49225 30.4706 9.50441 30.6774 9.41928C32.5382 8.65307 34.5814 9.33415 35.5422 11.0125C36.503 12.6909 36.0895 14.7949 34.5206 16.0111C34.326 16.1692 34.3017 16.2787 34.3503 16.5097C34.9219 18.8448 34.9219 21.18 34.3503 23.5029C34.2895 23.7705 34.3503 23.8799 34.5449 24.0259C35.8949 25.0475 36.4057 26.8475 35.8098 28.4164C35.226 30.0096 33.6449 31.0312 31.9422 30.9096C31.5044 30.8609 31.0666 30.6907 30.6287 30.6055C30.495 30.5812 30.3004 30.6055 30.2152 30.6663C28.4517 32.3204 26.4207 33.5001 24.0734 34.1812C23.8058 34.242 23.8302 34.4001 23.7937 34.5947C23.4896 36.6014 21.9207 37.9757 19.9991 38C18.1262 38 16.4843 36.65 16.2046 34.7893C16.1438 34.3757 15.9613 34.2055 15.5722 34.096C13.4073 33.4393 11.51 32.3325 9.86818 30.7758C9.64926 30.5812 9.49115 30.5082 9.21143 30.642C7.42361 31.3839 5.39255 30.6907 4.43175 29.0001C3.49528 27.3461 3.88446 25.2177 5.41688 24.0624C5.66012 23.8678 5.6966 23.7097 5.63579 23.4299C5.06418 21.1313 5.0885 18.8205 5.66012 16.5097C5.72093 16.2422 5.66012 16.1327 5.46552 15.9868C4.1277 14.9773 3.60474 13.2746 4.1277 11.7301C4.69932 10.1368 6.15876 9.09091 7.83712 9.01793ZM29.4004 29.7055C28.3301 28.3555 28.0261 26.8839 28.8166 25.3637C29.7166 23.6367 31.2247 23.0286 33.122 23.284C33.6692 21.0827 33.6692 18.8935 33.122 16.7165C31.3585 16.9841 29.9112 16.4489 28.999 14.9652C28.0139 13.3476 28.2571 11.7787 29.4369 10.3193C27.795 8.77469 25.922 7.65579 23.7572 7.05985C22.8815 8.82334 21.7748 9.67468 20.2667 9.72333C18.3694 9.77198 17.1046 8.81118 16.3627 7.05985C14.1735 7.66795 12.3006 8.78686 10.683 10.3314C11.8019 11.6814 12.0817 13.1652 11.2546 14.7219C10.3547 16.4003 8.87089 16.9962 6.97362 16.7287C6.42632 18.93 6.402 21.1191 6.97362 23.2961C8.76143 23.0529 10.2087 23.5637 11.1452 25.1083C12.0817 26.7015 11.8263 28.2582 10.683 29.7177C12.3249 31.2623 14.1735 32.3569 16.3627 32.9771C17.0194 31.3596 18.1262 30.3988 19.8532 30.3136C21.7505 30.2285 23.0153 31.2258 23.7572 32.9771C25.8977 32.369 27.7585 31.2744 29.4004 29.7055ZM10.4033 12.9341C10.4033 11.5111 9.24791 10.3558 7.82496 10.3801C6.402 10.3801 5.27093 11.5598 5.27093 12.9828C5.27093 14.3814 6.42632 15.5125 7.82496 15.5368C9.23575 15.5003 10.4033 14.3449 10.4033 12.9341ZM29.6558 12.9341C29.6558 14.3571 30.7868 15.5125 32.2098 15.5125C33.6328 15.5125 34.7882 14.3571 34.7882 12.9341C34.7882 11.5355 33.6571 10.3801 32.2585 10.3558C30.8355 10.3558 29.6801 11.5111 29.6558 12.9341ZM10.4033 27.0542C10.4033 25.6313 9.22359 24.5002 7.80063 24.5002C6.402 24.5245 5.27093 25.6556 5.27093 27.0785C5.27093 28.5015 6.42632 29.6569 7.84928 29.6569C9.23575 29.6326 10.4033 28.4772 10.4033 27.0542ZM22.6018 5.85581C22.6018 4.43285 21.4221 3.30178 19.9991 3.30178C18.6005 3.30178 17.4694 4.45718 17.4694 5.85581C17.4694 7.27876 18.6248 8.43416 20.0478 8.43416C21.4464 8.43416 22.6018 7.27876 22.6018 5.85581ZM34.8125 27.1029C34.8125 25.6799 33.6814 24.5245 32.2585 24.5002C30.8355 24.5002 29.6801 25.6556 29.6801 27.0542C29.6801 28.4528 30.8112 29.6082 32.2098 29.6326C33.6328 29.6569 34.7882 28.5258 34.8125 27.1029ZM17.4573 34.096C17.433 35.519 18.5762 36.6987 19.9627 36.7109C21.3613 36.7352 22.541 35.6163 22.5775 34.2176C22.6261 32.7947 21.4829 31.6028 20.0721 31.5785C18.6735 31.5542 17.4938 32.6731 17.4573 34.096Z" fill="black"/>
<path d="M20.0478 14.2233C23.2343 14.2233 25.8126 16.8381 25.8126 20.0489C25.7883 23.211 23.1978 25.7893 19.9992 25.7893C16.8006 25.7893 14.2344 23.1745 14.2344 19.9637C14.2587 16.7895 16.8614 14.2233 20.0478 14.2233ZM20.0235 24.5002C22.4924 24.5002 24.5234 22.4934 24.5234 20.0245C24.5234 17.5557 22.5167 15.5246 20.0478 15.5246C17.5789 15.5246 15.5479 17.5313 15.5479 20.0002C15.5357 22.4691 17.5424 24.5002 20.0235 24.5002Z" fill="black"/>
</svg>
