<svg width="40" height="40" viewBox="0 0 40 40" fill="none" xmlns="http://www.w3.org/2000/svg">
<path d="M39.9334 20.7733C39.7467 21.08 39.4667 21.1733 39.1201 21.1733C34.1734 21.16 29.2401 21.16 24.2934 21.1733C23.0934 21.1733 22.0934 20.7467 21.3201 19.8267C21.0401 19.48 20.6934 19.4 20.2801 19.48C19.7067 19.5867 19.1334 19.6933 18.5601 19.8C17.9867 19.9067 17.4667 19.7733 17.0267 19.4133C16.6667 19.1067 16.2934 19.0267 15.8401 19.2133C15.4134 19.3867 14.9601 19.5067 14.5067 19.6533C13.8401 19.8667 13.2134 19.7867 12.6667 19.36C12.3201 19.1067 11.9867 19.04 11.5734 19.2C11.1067 19.3733 10.6401 19.5067 10.1734 19.6667C9.52008 19.88 8.90675 19.7733 8.37341 19.3733C8.02675 19.12 7.69341 19.0533 7.28008 19.2133C6.82675 19.3867 6.37341 19.5067 5.92008 19.6667C5.24008 19.8933 4.61341 19.7867 4.04008 19.36C3.72008 19.12 3.40008 19.0667 3.02674 19.2C2.37341 19.4267 1.69341 19.6267 1.04008 19.8667C0.626745 20.0133 0.306745 19.9333 0.0800781 19.56C0.0800781 19.4267 0.0800781 19.3067 0.0800781 19.1733C0.280078 19.0267 0.466745 18.84 0.693411 18.7467C1.36008 18.4933 2.04008 18.2933 2.72008 18.0667C3.42674 17.8267 4.08008 17.92 4.66675 18.36C4.97341 18.6 5.29341 18.64 5.65341 18.52C6.13341 18.3467 6.61341 18.2 7.09341 18.04C7.76008 17.8267 8.37341 17.92 8.93341 18.3333C9.26675 18.5867 9.60008 18.64 9.98675 18.4933C10.4534 18.32 10.9201 18.1867 11.3867 18.0267C12.0534 17.8133 12.6667 17.9067 13.2267 18.32C13.5601 18.5733 13.8934 18.6267 14.2801 18.48C14.7467 18.3067 15.2134 18.1733 15.6801 18.0133C16.4001 17.7733 17.0401 17.92 17.6534 18.3733C17.8667 18.5333 18.2001 18.6133 18.4667 18.5867C19.0001 18.5467 19.5334 18.4133 20.0801 18.3067C20.8934 18.1467 21.6001 18.3467 22.1467 18.9867C22.7467 19.6933 23.4934 19.9867 24.4134 19.9867C29.3201 19.9733 34.2267 19.9867 39.1334 19.9733C39.4934 19.9733 39.7601 20.0533 39.9467 20.3733C39.9334 20.52 39.9334 20.64 39.9334 20.7733Z" fill="black"/>
<path d="M39.9333 24.6667C39.7466 24.9733 39.4666 25.0667 39.1199 25.0667C29.4399 25.0533 19.7599 25.0667 10.0933 25.0667C9.97327 25.0667 9.85327 25.08 9.7466 25.0533C9.45327 24.9867 9.2666 24.8 9.2666 24.48C9.2666 24.16 9.45327 23.9733 9.7466 23.9067C9.8666 23.88 9.99993 23.8933 10.1333 23.8933C19.7866 23.8933 29.4399 23.8933 39.0933 23.8933C39.4533 23.8933 39.7599 23.96 39.9466 24.2933C39.9333 24.4133 39.9333 24.5333 39.9333 24.6667Z" fill="black"/>
<path d="M0.0667057 28.9467C0.253372 28.64 0.520039 28.5467 0.880039 28.56C1.94671 28.6 2.96004 28.8133 3.90671 29.3067C4.92004 29.8267 5.98671 30.1467 7.14671 30.12C8.06671 30.0933 8.94671 29.9467 9.77337 29.52C10.8267 28.9867 11.92 28.6133 13.1067 28.56C14.4667 28.5067 15.76 28.7333 16.9734 29.3733C18.5067 30.1733 20.1067 30.3067 21.76 29.8667C22.04 29.8 22.2934 29.6667 22.56 29.56C22.9334 29.4133 23.2534 29.52 23.3867 29.8133C23.5334 30.1333 23.4 30.4667 23.0134 30.6267C21.0134 31.48 19.0134 31.5067 17.0134 30.6533C16.1467 30.2933 15.3067 29.8267 14.3467 29.7467C13.12 29.64 11.9334 29.7333 10.8267 30.3067C9.56004 30.96 8.22671 31.32 6.78671 31.2667C5.81337 31.2267 4.88004 31.0533 4.00004 30.6133C2.93337 30.08 1.84004 29.68 0.626706 29.68C0.426706 29.68 0.240039 29.44 0.0400391 29.3067C0.0667057 29.2133 0.0667057 29.08 0.0667057 28.9467Z" fill="black"/>
<path d="M39.9334 34.0133C39.7467 34.32 39.4667 34.4133 39.1067 34.4133C31.8267 34.4 24.5467 34.4133 17.2667 34.4133C17.1601 34.4133 17.0534 34.4267 16.9601 34.4C16.6401 34.3333 16.4534 34.1333 16.4667 33.8C16.4801 33.48 16.6667 33.3067 16.9601 33.24C17.0801 33.2133 17.1867 33.2267 17.3067 33.2267C24.5601 33.2267 31.8134 33.2267 39.0667 33.2267C39.4267 33.2267 39.7334 33.2933 39.9201 33.6267C39.9334 33.7467 39.9334 33.88 39.9334 34.0133Z" fill="black"/>
<path d="M39.9333 29.3467C39.7466 29.6267 39.4933 29.7467 39.1466 29.7467C38.1333 29.7333 37.2133 30.04 36.32 30.48C34.0266 31.6 31.72 31.6 29.44 30.4533C28.2133 29.84 26.9466 29.6267 25.6 29.7867C25.2 29.84 24.9066 29.6133 24.8666 29.2667C24.8266 28.92 25.0666 28.68 25.4933 28.6267C26.9733 28.4533 28.4 28.6133 29.7333 29.3067C31.0666 30 32.4666 30.3067 33.9466 30.0267C34.5866 29.9067 35.2266 29.68 35.8133 29.4133C36.88 28.92 37.96 28.5867 39.1333 28.56C39.4933 28.5467 39.76 28.6533 39.9466 28.9467C39.9333 29.08 39.9333 29.2133 39.9333 29.3467Z" fill="black"/>
<path d="M0.0666504 33.6267C0.253317 33.32 0.533317 33.2267 0.879984 33.2267C5.27998 33.24 9.66665 33.2267 14.0667 33.2267C14.1733 33.2267 14.28 33.2133 14.3733 33.24C14.68 33.2933 14.8667 33.48 14.8667 33.8C14.88 34.1333 14.6933 34.3333 14.3733 34.4C14.2667 34.4133 14.16 34.4133 14.0667 34.4133C9.66665 34.4133 5.27998 34.4133 0.879984 34.4133C0.519984 34.4133 0.253317 34.32 0.0666504 34.0133C0.0666504 33.88 0.0666504 33.7467 0.0666504 33.6267Z" fill="black"/>
<path d="M0.0666504 24.28C0.239984 24.04 0.439984 23.88 0.773317 23.88C2.83998 23.8933 4.91998 23.88 6.98665 23.88C7.42665 23.88 7.70665 24.12 7.69332 24.48C7.67998 24.8267 7.41332 25.04 6.98665 25.04C5.63998 25.04 4.29332 25.04 2.94665 25.04C2.26665 25.04 1.57332 25.0267 0.893317 25.04C0.533317 25.0533 0.26665 24.9467 0.0799837 24.64C0.0666504 24.5333 0.0666504 24.4133 0.0666504 24.28Z" fill="black"/>
<path d="M0.0666504 26.6133C0.119984 26.56 0.159984 26.4933 0.213317 26.44C0.46665 26.1733 0.82665 26.16 1.06665 26.4133C1.29332 26.64 1.29332 26.9867 1.06665 27.2133C0.82665 27.4667 0.46665 27.4533 0.213317 27.1867C0.159984 27.1333 0.119984 27.0667 0.0666504 27.0133C0.0666504 26.88 0.0666504 26.7467 0.0666504 26.6133Z" fill="black"/>
<path d="M39.9334 27C39.8801 27.0534 39.8401 27.12 39.7868 27.1734C39.5334 27.44 39.1734 27.4534 38.9334 27.2C38.7068 26.9734 38.7068 26.6267 38.9334 26.4C39.1734 26.1467 39.5334 26.16 39.7868 26.4267C39.8401 26.48 39.8801 26.5467 39.9334 26.6C39.9334 26.7467 39.9334 26.88 39.9334 27Z" fill="black"/>
<path d="M25.0533 16.48C24.9733 16.7467 24.9067 16.9867 24.8267 17.2267C24.7067 17.5734 24.4133 17.7334 24.0933 17.64C23.7867 17.5467 23.6133 17.2534 23.7067 16.8934C23.92 16.12 24.1333 15.3467 24.36 14.5734C24.4667 14.2 24.7333 14.0534 25.1067 14.1467C25.8933 14.36 26.68 14.5734 27.4533 14.8134C27.8133 14.92 27.9467 15.2267 27.8533 15.5467C27.76 15.84 27.4933 16 27.1467 15.92C26.7733 15.84 26.4 15.72 25.9333 15.5867C26.4 16.2934 26.96 16.6667 27.6933 16.7867C27.96 16.8267 28.24 16.8267 28.5067 16.8267C31.6533 16.8267 34.8133 16.8267 37.96 16.8267C38.0933 16.8267 38.2267 16.8267 38.3467 16.84C38.68 16.8667 38.88 17.0667 38.8933 17.3867C38.9067 17.72 38.72 17.92 38.4 17.9734C38.2533 18 38.0933 18 37.9333 18C34.8 18 31.6533 17.9867 28.52 18.0134C27.16 18.0267 26.0267 17.6267 25.16 16.5467C25.1467 16.5334 25.1067 16.52 25.0533 16.48Z" fill="black"/>
<path d="M6.26666 9.09335C5.30666 9.08001 4.53333 8.26668 4.56 7.29335C4.58666 6.32001 5.38666 5.56001 6.36 5.58668C7.30666 5.61335 8.06666 6.40001 8.05333 7.36001C8.02666 8.34668 7.24 9.10668 6.26666 9.09335ZM6.29333 7.92001C6.6 7.92001 6.86666 7.68001 6.88 7.36001C6.89333 7.02668 6.64 6.76001 6.32 6.74668C6.01333 6.74668 5.74666 6.98668 5.73333 7.30668C5.70666 7.64001 5.96 7.92001 6.29333 7.92001Z" fill="black"/>
<path d="M14.8934 9.92C14.8801 10.8933 14.0934 11.6667 13.1201 11.6533C12.1601 11.64 11.3734 10.84 11.4001 9.86667C11.4134 8.90667 12.2001 8.14667 13.1467 8.14667C14.1201 8.16 14.9067 8.96 14.8934 9.92ZM13.1467 9.33333C12.8401 9.33333 12.5867 9.58667 12.5734 9.89333C12.5601 10.2267 12.8267 10.4933 13.1467 10.4933C13.4667 10.4933 13.7334 10.2267 13.7201 9.89333C13.7067 9.58667 13.4534 9.33333 13.1467 9.33333Z" fill="black"/>
<path d="M6.88012 16.2933C5.90678 16.2933 5.12012 15.52 5.12012 14.5467C5.12012 13.5733 5.90678 12.8 6.88012 12.8C7.84012 12.8133 8.61345 13.5733 8.61345 14.5333C8.64012 15.4933 7.85345 16.2933 6.88012 16.2933ZM6.88012 13.9733C6.57345 13.9733 6.30678 14.2267 6.30678 14.5333C6.29345 14.8533 6.56012 15.12 6.89345 15.12C7.20012 15.12 7.46678 14.8667 7.46678 14.56C7.46678 14.24 7.20012 13.9733 6.88012 13.9733Z" fill="black"/>
<path d="M20.1601 15.3067C20.1467 16.28 19.3467 17.0534 18.3867 17.0267C17.4401 17.0134 16.6667 16.2134 16.6667 15.2667C16.6667 14.3067 17.4667 13.52 18.4401 13.52C19.4001 13.5467 20.1734 14.3334 20.1601 15.3067ZM19.0001 15.2934C19.0134 14.96 18.7467 14.6934 18.4267 14.6934C18.1201 14.6934 17.8534 14.96 17.8534 15.2667C17.8401 15.5867 18.1201 15.8667 18.4401 15.8667C18.7334 15.8667 18.9867 15.6134 19.0001 15.2934Z" fill="black"/>
<path d="M17.3067 12.52C17 12.5333 16.7333 12.28 16.72 11.9733C16.7067 11.64 16.9467 11.36 17.28 11.36C17.6 11.3467 17.88 11.6267 17.88 11.9467C17.88 12.24 17.6133 12.5067 17.3067 12.52Z" fill="black"/>
<path d="M10.7601 5.79999C11.0934 5.79999 11.3601 6.05332 11.3468 6.38665C11.3468 6.69332 11.0934 6.94665 10.7734 6.94665C10.4401 6.94665 10.1734 6.69332 10.1868 6.35999C10.2001 6.05332 10.4534 5.79999 10.7601 5.79999Z" fill="black"/>
<path d="M3.97343 12.6C3.66676 12.6134 3.40009 12.36 3.38676 12.0534C3.37343 11.72 3.61343 11.4534 3.94676 11.44C4.25343 11.4267 4.52009 11.68 4.53343 11.9867C4.54676 12.3067 4.29343 12.5867 3.97343 12.6Z" fill="black"/>
<path d="M11.3867 13.0267C11.3867 13.36 11.12 13.6267 10.8 13.6134C10.4933 13.6 10.24 13.3467 10.24 13.04C10.24 12.7067 10.5067 12.44 10.8267 12.4534C11.1333 12.4534 11.3867 12.7067 11.3867 13.0267Z" fill="black"/>
<path d="M12.4134 14.7467C12.7334 14.7334 12.9868 14.9734 13.0001 15.28C13.0134 15.6134 12.7734 15.88 12.4401 15.8934C12.1201 15.9067 11.8401 15.64 11.8401 15.32C11.8401 15.0134 12.1068 14.76 12.4134 14.7467Z" fill="black"/>
<path d="M7.10677 27.7867C7.42677 27.7867 7.70677 28.0667 7.69344 28.3867C7.68011 28.6933 7.41344 28.9467 7.10677 28.9467C6.78677 28.9467 6.5201 28.6667 6.53344 28.3467C6.53344 28.04 6.8001 27.7867 7.10677 27.7867Z" fill="black"/>
<path d="M33.48 28.3467C33.4934 28.68 33.2267 28.9467 32.9067 28.9467C32.6 28.9467 32.3334 28.6933 32.32 28.3867C32.3067 28.0667 32.5867 27.7867 32.9067 27.7867C33.2134 27.7867 33.4667 28.04 33.48 28.3467Z" fill="black"/>
<path d="M14.1334 26.8134C14.1334 27.1334 13.8534 27.4 13.5334 27.4C13.2267 27.3867 12.9734 27.1334 12.9734 26.8134C12.9734 26.4934 13.2134 26.24 13.5334 26.24C13.8534 26.2134 14.1334 26.4934 14.1334 26.8134Z" fill="black"/>
<path d="M26.4533 27.3866C26.1333 27.3866 25.8533 27.1066 25.8667 26.7866C25.88 26.48 26.1333 26.2267 26.44 26.2133C26.76 26.2133 27.0267 26.48 27.0267 26.8C27.0133 27.1333 26.76 27.3866 26.4533 27.3866Z" fill="black"/>
<path d="M20.5734 28.36C20.5734 28.6933 20.3068 28.96 19.9868 28.9467C19.6801 28.9467 19.4268 28.68 19.4268 28.3733C19.4268 28.04 19.6801 27.7733 20.0134 27.7867C20.3201 27.7867 20.5734 28.04 20.5734 28.36Z" fill="black"/>
</svg>
