<svg width="40" height="40" viewBox="0 0 40 40" fill="none" xmlns="http://www.w3.org/2000/svg">
<g clip-path="url(#clip0_2492_1314)">
<path d="M2.12012 20.0972C2.17302 19.9517 2.21269 19.8327 2.29204 19.6872C2.63587 18.7879 3.49546 18.1664 4.47408 18.1399C5.0824 18.1135 5.67751 18.1399 6.28583 18.1399C6.74869 18.1399 6.98673 18.378 6.98673 18.8408C6.98673 20.0046 6.98673 21.1419 6.98673 22.2924C6.98673 22.7817 6.77514 22.9933 6.28583 22.9933C5.7304 22.9933 5.17497 22.9933 4.61955 22.9933C3.42934 22.9933 2.56975 22.3189 2.19946 21.1816C2.17302 21.1287 2.14657 21.089 2.13334 21.0096C2.12012 20.7055 2.12012 20.4145 2.12012 20.0972ZM5.77008 19.3566C5.38657 19.3566 5.01628 19.3566 4.65922 19.3566C4.56665 19.3566 4.4873 19.3566 4.39473 19.383C3.8393 19.4492 3.40289 19.9385 3.34999 20.4939C3.2971 21.0758 3.66738 21.6576 4.24926 21.7238C4.75179 21.7899 5.26755 21.7502 5.77008 21.7502C5.77008 20.9435 5.77008 20.1765 5.77008 19.3566Z" fill="black"/>
<path d="M21.9435 1.12C22.3535 1.33159 22.8428 1.47706 23.1999 1.768C23.7288 2.17795 23.9801 2.78628 23.9933 3.46073C24.0198 4.06906 23.9933 4.65093 23.9933 5.24604C23.9933 5.73534 23.7817 5.94693 23.266 5.97338C22.1287 5.97338 20.9914 5.97338 19.8541 5.97338C19.3647 5.97338 19.1532 5.76179 19.1267 5.24604C19.1267 4.71706 19.1267 4.16163 19.1267 3.63265C19.1267 2.44244 19.8012 1.5564 20.9385 1.21257C20.9914 1.18612 21.031 1.15967 21.1104 1.14644C21.3881 1.12 21.6526 1.12 21.9435 1.12ZM20.3566 4.74351C21.203 4.74351 21.97 4.74351 22.7767 4.74351C22.7767 4.3071 22.8031 3.87069 22.7767 3.46073C22.7238 2.82595 22.1948 2.32342 21.5732 2.34987C20.9385 2.34987 20.4095 2.83918 20.3698 3.48718C20.3301 3.87069 20.3566 4.3071 20.3566 4.74351Z" fill="black"/>
<path d="M21.1768 40C20.8859 39.881 20.5685 39.8016 20.304 39.6429C19.5502 39.2065 19.1667 38.5056 19.1138 37.6328C19.0874 37.0245 19.1138 36.4294 19.1138 35.8211C19.1138 35.3582 19.3518 35.1466 19.7883 35.1466C20.952 35.1466 22.1158 35.1466 23.2663 35.1466C23.7292 35.1466 23.9407 35.3846 23.9407 35.8211C23.9407 36.35 23.9407 36.9055 23.9407 37.4344C23.9407 38.7172 23.2663 39.59 22.0364 39.9206C21.9835 39.9471 21.9438 39.9735 21.8909 39.9868C21.6794 40 21.4413 40 21.1768 40ZM20.3569 36.3765C20.3569 36.8393 20.3305 37.2493 20.3569 37.6593C20.3834 38.2676 20.8859 38.7437 21.4942 38.7966C22.1025 38.8495 22.6976 38.4131 22.7505 37.7783C22.8034 37.3154 22.7505 36.8658 22.7505 36.3765C21.9438 36.3765 21.1768 36.3765 20.3569 36.3765Z" fill="black"/>
<path d="M41.0001 20.9435C40.8811 21.2344 40.7885 21.5783 40.6166 21.8428C40.1802 22.5701 39.4793 22.9536 38.6329 22.9801C38.0246 23.0065 37.4295 22.9801 36.8212 22.9801C36.3848 22.9801 36.1467 22.742 36.1467 22.3056C36.1467 21.1419 36.1467 19.9781 36.1467 18.8276C36.1467 18.3647 36.3848 18.1531 36.8212 18.1531C37.3766 18.1531 37.932 18.1531 38.4875 18.1531C39.6909 18.1531 40.5902 18.8276 40.934 19.9913C40.9604 20.0575 40.9869 20.1368 41.0001 20.2029C41.0001 20.441 41.0001 20.679 41.0001 20.9435ZM37.3766 21.7634C37.8395 21.7634 38.2759 21.7899 38.6858 21.7634C39.2942 21.7105 39.7438 21.208 39.7702 20.5997C39.7967 19.9913 39.3338 19.4095 38.7255 19.3698C38.2891 19.3169 37.8262 19.3698 37.3766 19.3698C37.3766 20.1765 37.3766 20.9435 37.3766 21.7634Z" fill="black"/>
<path d="M8.81179 20.5335C8.83824 13.4981 14.5644 7.7851 21.5734 7.81155C28.6089 7.838 34.3351 13.5907 34.3218 20.5996C34.2954 27.6351 28.5427 33.348 21.5338 33.3216C14.4983 33.2819 8.79857 27.5425 8.81179 20.5335ZM33.092 20.5864C33.092 14.2254 27.9212 9.05466 21.5602 9.02821C15.1992 9.02821 10.0284 14.199 10.002 20.56C10.002 26.9209 15.1728 32.0917 21.5338 32.1182C27.8947 32.1182 33.092 26.9474 33.092 20.5864Z" fill="black"/>
<path d="M33.8458 6.11881C34.5996 6.14526 35.3401 6.58167 35.7766 7.49416C36.213 8.40665 36.1204 9.30591 35.4592 10.0862C35.0228 10.6151 34.5202 11.078 34.0309 11.5409C33.7664 11.8053 33.4226 11.7789 33.1581 11.5144C32.3117 10.668 31.4654 9.84812 30.6455 9.00175C30.3545 8.71081 30.3545 8.36697 30.6455 8.08926C31.1083 7.6264 31.5447 7.17677 32.0208 6.74036C32.4175 6.31718 32.973 6.10558 33.8458 6.11881ZM33.621 10.2052C33.9119 9.91424 34.2293 9.6233 34.4938 9.30591C34.9302 8.81661 34.8773 8.10248 34.4409 7.66607C33.978 7.20322 33.2507 7.17677 32.7746 7.61318C32.4572 7.87767 32.1663 8.19505 31.9018 8.45954C32.4704 9.08109 33.0391 9.63652 33.621 10.2052Z" fill="black"/>
<path d="M9.51277 35.0144C8.52093 34.9615 7.76714 34.5251 7.33073 33.6126C6.89432 32.7001 7.01334 31.8008 7.67457 31.0206C8.11098 30.5181 8.58706 30.0552 9.07636 29.5923C9.34085 29.3279 9.68469 29.3279 9.94918 29.5923C10.7955 30.4387 11.6684 31.2851 12.4883 32.1315C12.7528 32.3959 12.7528 32.7398 12.4883 33.0043C12.0254 33.4936 11.5758 33.9432 11.0865 34.3796C10.6765 34.8292 10.1211 35.0144 9.51277 35.0144ZM9.51277 30.8883C9.22183 31.2057 8.90444 31.4967 8.61351 31.8008C8.20355 32.2637 8.25644 32.991 8.6664 33.4142C9.07636 33.8374 9.77726 33.9168 10.2666 33.5332C10.6236 33.2423 10.9146 32.8852 11.232 32.5679C10.6501 32.0257 10.0946 31.4702 9.51277 30.8883Z" fill="black"/>
<path d="M36.0014 32.8852C35.975 33.5861 35.5121 34.3399 34.6261 34.7763C33.7268 35.1863 32.8408 35.0937 32.0605 34.4589C31.5316 34.0225 31.0687 33.52 30.6058 33.0307C30.3413 32.7662 30.3413 32.4224 30.6058 32.1579C31.4522 31.3115 32.2986 30.4387 33.1449 29.6188C33.4094 29.3543 33.7533 29.3543 34.0178 29.6188C34.5071 30.0816 34.9567 30.5313 35.3931 31.0206C35.8295 31.4438 36.0147 31.9992 36.0014 32.8852ZM31.8886 32.6207C32.1796 32.9117 32.4705 33.2026 32.7614 33.4671C33.2507 33.9035 33.9913 33.9035 34.4277 33.4407C34.8906 33.0042 34.917 32.2505 34.4806 31.7744C34.2161 31.457 33.8987 31.166 33.6342 30.8751C33.0391 31.4702 32.4837 32.0256 31.8886 32.6207Z" fill="black"/>
<path d="M9.27469 6.11884C10.1872 6.11884 10.7558 6.33043 11.2055 6.76684C11.6419 7.17679 12.0783 7.6132 12.4882 8.04961C12.8056 8.367 12.8056 8.69761 12.4882 9.015C11.6683 9.84814 10.8484 10.6681 10.0285 11.488C9.7111 11.8054 9.39371 11.8054 9.08955 11.5144C8.60024 11.0516 8.11093 10.6019 7.70097 10.1126C7.05297 9.33239 6.92073 8.44635 7.34391 7.52063C7.75387 6.58169 8.53412 6.14528 9.27469 6.11884ZM11.2055 8.49924C10.9145 8.20831 10.65 7.91737 10.3326 7.65288C9.84334 7.21647 9.10277 7.21647 8.66636 7.67933C8.2035 8.14218 8.17705 8.86953 8.61346 9.34561C8.87795 9.663 9.19534 9.95394 9.45983 10.2184C10.0814 9.63655 10.6368 9.08112 11.2055 8.49924Z" fill="black"/>
<path d="M22.1684 20.5864C22.1684 23.3371 22.1684 26.0746 22.1684 28.8253C22.1684 29.4997 21.97 29.6981 21.2691 29.6716C16.8257 29.6055 12.9774 26.0481 12.4881 21.5915C11.9855 16.8571 15.0536 12.6253 19.7219 11.6599C20.2509 11.5409 20.8327 11.5144 21.3617 11.488C21.9171 11.4615 22.142 11.6863 22.142 12.2682C22.1684 15.0189 22.1684 17.8093 22.1684 20.5864ZM20.9253 12.7046C16.786 12.9162 13.4799 16.6191 13.6651 20.9038C13.8634 25.5721 17.7779 28.2963 20.9253 28.3757C20.9253 23.1652 20.9253 17.9547 20.9253 12.7046Z" fill="black"/>
</g>
<defs>
<clipPath id="clip0_2492_1314">
<rect width="40" height="40" fill="white"/>
</clipPath>
</defs>
</svg>
