<svg width="40" height="40" viewBox="0 0 40 40" fill="none" xmlns="http://www.w3.org/2000/svg">
<path d="M2.27333 12.9576C2.27333 12.5466 2.27333 12.196 2.27333 11.8091C2.43049 11.8091 2.57556 11.8091 2.70854 11.8091C7.14522 11.8091 11.594 11.8575 16.0307 11.785C17.8561 11.7608 19.4277 13.2598 18.6903 15.4721C18.5573 15.8711 18.3518 16.2579 18.1221 16.6206C17.0582 18.2768 16.3571 20.0539 16.1274 22.0002C16.0428 22.6772 15.9823 23.3663 16.0669 24.0312C16.2604 25.6148 17.6023 26.9084 19.2343 27.1985C20.5157 27.4282 21.6763 27.126 22.6917 26.316C23.8523 25.3851 24.1424 24.1521 24.0215 22.7256C23.8281 20.4891 23.139 18.446 21.906 16.5722C21.4466 15.8831 21.1685 15.1336 21.1806 14.2874C21.2048 12.9334 22.2928 11.8091 23.6468 11.8091C28.3132 11.797 32.9795 11.8091 37.6459 11.8091C37.6822 11.8091 37.7184 11.8212 37.7789 11.8212C37.7789 12.1839 37.7789 12.5466 37.7789 12.9455C37.6338 12.9455 37.5008 12.9455 37.3558 12.9455C32.8465 12.9455 28.3373 12.9455 23.816 12.9455C22.728 12.9455 22.0873 13.828 22.4016 14.7951C22.9335 14.5775 23.4534 14.2995 23.9974 14.1665C25.0854 13.9126 26.0525 14.239 26.8746 14.9765C27.1526 15.2182 27.3944 15.4963 27.6724 15.7502C28.567 16.5964 29.8485 16.5964 30.7431 15.7502C31.0332 15.4842 31.2991 15.182 31.5893 14.9281C32.7982 13.8643 34.6116 13.7555 35.8205 14.8072C36.6425 15.5205 37.3437 16.3909 38.1053 17.2009C37.9119 17.3822 37.6459 17.624 37.3558 17.8899C36.7634 17.2976 36.1469 16.681 35.5424 16.0645C34.4181 14.9402 33.185 14.9281 32.0728 16.0645C31.4321 16.7173 30.7551 17.3097 29.8122 17.4668C28.7604 17.6361 27.8296 17.3822 27.0196 16.681C26.7053 16.403 26.4273 16.0887 26.1129 15.8106C25.2546 15.0248 23.9369 15.0369 23.1269 15.8469C23.0544 15.9194 23.0061 16.1128 23.0544 16.1854C23.3083 16.6689 23.5863 17.1404 23.8523 17.624C25.4843 17.3943 26.524 17.9504 26.8625 19.2318C27.1889 20.477 26.5482 21.5166 25.0975 22.0848C25.4239 23.9828 25.1216 25.7357 23.5622 27.0776C22.4862 28.0085 21.229 28.4437 19.8025 28.3953C17.1791 28.3107 14.0964 25.8929 14.9547 22.0607C14.2052 21.8431 13.6129 21.4078 13.3106 20.6583C13.093 20.1264 13.0809 19.5945 13.2744 19.0505C13.6854 17.8657 14.7976 17.3338 16.2241 17.6361C16.5021 17.1404 16.7923 16.6568 17.0582 16.1491C17.0945 16.0766 17.022 15.9073 16.9494 15.8348C16.1516 15.049 14.8459 15.0248 13.9997 15.7864C13.7458 16.0161 13.5041 16.27 13.2623 16.5118C11.872 17.8416 9.88944 17.8537 8.4992 16.5239C8.30577 16.3304 8.11235 16.137 7.91892 15.9436C6.93971 14.9765 5.64618 14.9765 4.67905 15.9315C4.09878 16.4997 3.53059 17.08 2.95032 17.6481C2.8657 17.7328 2.78107 17.8053 2.68436 17.902C2.4184 17.6361 2.16453 17.3822 1.8623 17.0679C2.17662 16.7656 2.50302 16.4634 2.81734 16.1612C3.22837 15.7623 3.61522 15.3391 4.03833 14.9523C5.31977 13.7796 7.20567 13.7676 8.4992 14.916C8.78933 15.1699 9.0432 15.4479 9.32125 15.7139C10.2279 16.5722 11.5094 16.5722 12.416 15.7139C12.6578 15.4842 12.8875 15.2424 13.1293 15.0127C14.3624 13.8522 16.0911 13.7434 17.4572 14.7347C17.5176 14.771 17.566 14.8193 17.6264 14.8556C17.9891 14.1181 17.5297 13.0059 16.4659 12.9213C16.3329 12.9092 16.1999 12.9213 16.0669 12.9213C11.6303 12.9213 7.18149 12.9213 2.74481 12.9213C2.57556 12.9576 2.44258 12.9576 2.27333 12.9576ZM15.7164 18.7483C15.0756 18.579 14.4954 18.9175 14.3261 19.5461C14.169 20.1385 14.5075 20.7188 15.0998 20.888C15.3053 20.1869 15.5108 19.4857 15.7164 18.7483ZM24.9282 20.888C25.5931 20.6704 25.9195 19.9934 25.6536 19.389C25.4118 18.8329 24.7711 18.5306 24.3117 18.7845C24.5293 19.4857 24.7227 20.1869 24.9282 20.888Z" fill="black"/>
<path d="M20.02 25.5665C18.4363 25.5665 17.2516 24.1037 17.6989 22.5442C18.1462 20.9726 18.7386 19.4494 19.2705 17.9141C19.3672 17.6481 19.4518 17.3701 19.5969 17.1404C19.6815 17.0074 19.8749 16.8745 20.02 16.8745C20.1651 16.8745 20.3948 17.0074 20.4431 17.1404C21.1926 18.9779 21.9784 20.8034 22.3895 22.7618C22.6796 24.2125 21.519 25.5665 20.02 25.5665ZM20.0442 18.7241C19.9958 18.7603 19.9717 18.7603 19.9717 18.7724C19.5123 20.1264 19.0408 21.4683 18.6177 22.8344C18.4363 23.4146 18.7023 24.007 19.198 24.3334C19.6936 24.6719 20.3343 24.6719 20.8179 24.3455C21.3256 24.007 21.6037 23.4146 21.4223 22.8223C21.0476 21.6013 20.6365 20.3924 20.2255 19.1835C20.1772 19.0384 20.1046 18.8812 20.0442 18.7241Z" fill="black"/>
<path d="M8.5594 19.8363C8.5594 21.0935 7.51974 22.1332 6.26248 22.1211C5.0173 22.1211 3.98973 21.0935 3.97764 19.8484C3.96556 18.579 4.99313 17.5394 6.26248 17.5394C7.53183 17.5394 8.5594 18.5669 8.5594 19.8363ZM7.41094 19.8242C7.39885 19.1956 6.89111 18.6878 6.26248 18.6878C5.62176 18.6878 5.10193 19.2197 5.1261 19.8605C5.13819 20.4891 5.67011 20.9847 6.28665 20.9727C6.9032 20.9727 7.42303 20.4407 7.41094 19.8242Z" fill="black"/>
<path d="M33.7531 17.5394C35.0224 17.5273 36.0621 18.5548 36.0621 19.8242C36.0742 21.0935 35.0345 22.1211 33.7652 22.1211C32.5079 22.1211 31.4804 21.1056 31.4683 19.8605C31.4683 18.5911 32.4837 17.5514 33.7531 17.5394ZM33.7773 20.9726C34.3938 20.9726 34.9136 20.4407 34.9136 19.8242C34.9136 19.1956 34.4059 18.6878 33.7773 18.6878C33.1366 18.6878 32.6167 19.2076 32.6288 19.8484C32.6409 20.477 33.1486 20.9847 33.7773 20.9726Z" fill="black"/>
<path d="M10.8325 24.9258C9.88954 24.9258 9.12793 24.1521 9.12793 23.2212C9.12793 22.2783 9.91372 21.4925 10.8567 21.4925C11.7875 21.4925 12.5612 22.2783 12.5612 23.2091C12.5612 24.1642 11.7996 24.9258 10.8325 24.9258ZM11.4248 23.197C11.4128 22.8948 11.1468 22.6289 10.8446 22.641C10.5423 22.653 10.2764 22.9311 10.2885 23.2333C10.3006 23.5476 10.5544 23.7894 10.8688 23.7773C11.1831 23.7652 11.4248 23.5114 11.4248 23.197Z" fill="black"/>
<path d="M29.1715 24.9862C28.2165 24.9741 27.4548 24.1884 27.4669 23.2333C27.479 22.3025 28.2527 21.5408 29.1957 21.5529C30.1265 21.5529 30.9002 22.3387 30.9002 23.2696C30.9002 24.2125 30.1265 24.9862 29.1715 24.9862ZM29.1836 22.7014C28.8814 22.7014 28.6154 22.9553 28.6154 23.2575C28.6154 23.5597 28.8572 23.8257 29.1715 23.8378C29.4858 23.8499 29.7639 23.5839 29.7639 23.2575C29.7518 22.9553 29.4979 22.7014 29.1836 22.7014Z" fill="black"/>
<path d="M6.26272 28.9998C5.64618 28.9998 5.12635 28.4799 5.11426 27.8634C5.11426 27.2227 5.63409 26.7028 6.27481 26.7149C6.89135 26.727 7.41118 27.2468 7.39909 27.8634C7.39909 28.4799 6.89135 28.9998 6.26272 28.9998Z" fill="black"/>
<path d="M15.4382 26.7029C16.0548 26.7029 16.5746 27.2227 16.5746 27.8513C16.5746 28.4921 16.0427 29.0119 15.402 28.9998C14.7854 28.9877 14.2777 28.4558 14.2898 27.8393C14.3019 27.2106 14.8217 26.7029 15.4382 26.7029Z" fill="black"/>
<path d="M24.6019 26.7029C25.2185 26.7029 25.7383 27.2106 25.7504 27.8393C25.7504 28.48 25.2305 28.9998 24.5898 28.9998C23.9733 28.9877 23.4534 28.4679 23.4655 27.8513C23.4655 27.2227 23.9733 26.7029 24.6019 26.7029Z" fill="black"/>
<path d="M33.7533 28.9998C33.1368 28.9998 32.6169 28.4799 32.6169 27.8513C32.6169 27.2106 33.1489 26.6907 33.7896 26.7149C34.4061 26.727 34.9139 27.2589 34.9018 27.8755C34.9018 28.492 34.3819 28.9998 33.7533 28.9998Z" fill="black"/>
</svg>
